# xmcd
#
# Track frame offsets: 
#        150
#        15490
#        33485
#        50685
#        63877
#        82133
#        101715
#        117867
#        138254
#        156948
#        181460
#        195875
#        214431
#        229552
#        252026
#
# Disc length: 3538 seconds
#
# Revision: 0
# Processed by: cddbd v1.5.2PL0 Copyright (c) Steve Scherf et al.
# Submitted via: ExactAudioCopy v0.99pb5
#
DISCID=c80dd00f
DTITLE=Omar and The Howlers - Essential Collection [CD2)
DYEAR=2011
DGENRE=Blues
TTITLE0=I Want You
TTITLE1=Snake Rhythm Rock
TTITLE2=Burn It To The Ground
TTITLE3=Got My Heart Set On You
TTITLE4=Work Song
TTITLE5=Alligator Wine
TTITLE6=Do It For Daddy
TTITLE7=I'm Wild About You
TTITLE8=That's Your Daddy Yaddy Yo
TTITLE9=Stone Cold Blues
TTITLE10=Girl's Got Rhythm
TTITLE11=Life Without You
TTITLE12=World Of Trouble
TTITLE13=Sugar Ditch
TTITLE14=Built For Comfort
EXTD=
EXTT0=
EXTT1=
EXTT2=
EXTT3=
EXTT4=
EXTT5=
EXTT6=
EXTT7=
EXTT8=
EXTT9=
EXTT10=
EXTT11=
EXTT12=
EXTT13=
EXTT14=
PLAYORDER=
